<svg xmlns="http://www.w3.org/2000/svg"
 viewBox="-41.62 59.54 665.14 263.94">
  <rect x="-41.62" y="59.540000000000006" width="665.14" height="263.94" fill="#F7F4EF"/>
  <path fill="#7C6FAF" d="M66 271.48L7.04 271.48L7.04 262.46L22.22 259.60Q22.44 249.92 22.55 240.90Q22.66 231.88 22.66 223.52L22.66 223.52L22.66 162.14Q22.66 153.12 22.55 147.73Q22.44 142.34 22 135.74L22 135.74L6.38 133.76L6.38 125.62L42.90 111.54L46.42 113.74L47.52 127.16Q62.26 111.54 80.30 111.54L80.30 111.54Q92.18 111.54 101.86 118.03Q111.54 124.52 117.26 136.84Q122.98 149.16 122.98 166.98L122.98 166.98Q122.98 184.14 116.71 196.79Q110.44 209.44 99.99 216.26Q89.54 223.08 76.78 223.08L76.78 223.08Q68.64 223.08 61.60 220Q54.56 216.92 48.18 209.88L48.18 209.88L48.18 223.30Q48.18 231.66 48.29 240.57Q48.40 249.48 48.62 259.16L48.62 259.16L66 262.46L66 271.48ZM70.18 127.16L70.18 127.16Q65.12 127.16 59.84 129.80Q54.56 132.44 48.84 136.84L48.84 136.84L48.84 198.88Q58.30 207.68 68.64 207.68L68.64 207.68Q79.64 207.68 87.34 198.11Q95.04 188.54 95.04 168.08L95.04 168.08Q95.04 147.84 88.11 137.50Q81.18 127.16 70.18 127.16Z M193.38 220L134.42 220L134.42 210.98L148.72 208.12Q148.94 199.98 148.94 190.41Q148.94 180.84 148.94 173.80L148.94 173.80L148.94 162.14Q148.94 153.12 148.83 147.73Q148.72 142.34 148.28 135.74L148.28 135.74L132.66 133.76L132.66 125.62L169.40 111.54L172.92 113.74L175.12 139.92Q180.18 126.28 188.76 118.91Q197.34 111.54 205.92 111.54L205.92 111.54Q211.86 111.54 216.70 114.62Q221.54 117.70 223.08 123.42L223.08 123.42Q222.64 140.36 209 140.36L209 140.36Q200.86 140.36 193.82 132.66L193.82 132.66L191.84 130.46Q179.96 140.80 175.12 158.40L175.12 158.40L175.12 173.80Q175.12 180.62 175.12 189.97Q175.12 199.32 175.34 207.46L175.34 207.46L193.38 210.98L193.38 220Z M280.50 122.32L280.50 122.32Q274.78 122.32 269.39 125.62Q264 128.92 260.26 136.62Q256.52 144.32 255.64 157.52L255.64 157.52L285.34 157.52Q293.92 157.52 296.67 154.22Q299.42 150.92 299.42 144.98L299.42 144.98Q299.42 133.54 294.14 127.93Q288.86 122.32 280.50 122.32ZM281.60 223.08L281.60 223.08Q265.54 223.08 253.44 216.70Q241.34 210.32 234.63 198.11Q227.92 185.90 227.92 168.52L227.92 168.52Q227.92 150.92 234.96 138.16Q242.00 125.40 253.99 118.47Q265.98 111.54 280.50 111.54L280.50 111.54Q293.70 111.54 303.60 117.04Q313.50 122.54 319 132.44Q324.50 142.34 324.50 155.76L324.50 155.76Q324.50 162.80 323.18 167.86L323.18 167.86L255.42 167.86Q256.30 186.56 265.76 196.13Q275.22 205.70 289.96 205.70L289.96 205.70Q308.22 205.70 319.66 192.72L319.66 192.72L325.60 197.56Q318.78 209.66 308.66 216.37Q298.54 223.08 281.60 223.08Z M389.84 223.08L389.84 223.08Q375.10 223.08 363.00 216.48Q350.90 209.88 343.86 197.45Q336.82 185.02 336.82 167.42L336.82 167.42Q336.82 149.82 344.19 137.28Q351.56 124.74 363.66 118.14Q375.76 111.54 389.84 111.54L389.84 111.54Q403.92 111.54 416.02 118.14Q428.12 124.74 435.49 137.17Q442.86 149.60 442.86 167.42L442.86 167.42Q442.86 185.02 435.71 197.56Q428.56 210.10 416.57 216.59Q404.58 223.08 389.84 223.08ZM389.84 212.52L389.84 212.52Q401.72 212.52 408.10 201.41Q414.48 190.30 414.48 167.64L414.48 167.64Q414.48 144.76 408.10 133.54Q401.72 122.32 389.84 122.32L389.84 122.32Q365.42 122.32 365.42 167.64L365.42 167.64Q365.42 212.52 389.84 212.52Z M508.64 220L454.30 220L454.30 210.98L468.82 208.12Q469.04 199.98 469.04 190.41Q469.04 180.84 469.04 173.80L469.04 173.80L469.04 162.14Q469.04 153.12 468.93 147.73Q468.82 142.34 468.38 135.74L468.38 135.74L452.76 133.76L452.76 125.62L489.50 111.54L493.02 113.74L494.56 130.68Q502.92 121 512.49 116.27Q522.06 111.54 531.96 111.54L531.96 111.54Q546.26 111.54 553.96 121Q561.66 130.46 561.66 150.92L561.66 150.92L561.66 173.80Q561.66 181.28 561.66 190.63Q561.66 199.98 561.88 208.34L561.88 208.34L575.52 210.98L575.52 220L521.18 220L521.18 210.98L535.26 208.12Q535.48 199.98 535.48 190.63Q535.48 181.28 535.48 173.80L535.48 173.80L535.48 153.12Q535.48 140.14 531.96 135.08Q528.44 130.02 520.08 130.02L520.08 130.02Q508.20 130.02 495.22 141.02L495.22 141.02L495.22 173.80Q495.22 180.84 495.22 190.41Q495.22 199.98 495.44 208.34L495.44 208.34L508.64 210.98L508.64 220Z"/>
</svg>
