<svg xmlns="http://www.w3.org/2000/svg" width="16" height="16"
 viewBox="-71.29 55.54 271.94 271.94">
  <rect x="-71.28999999999999" y="55.540000000000006" width="271.94" height="271.94" fill="#F7F4EF"/>
  <path fill="#7C6FAF" d="M66 271.48L7.04 271.48L7.04 262.46L22.22 259.60Q22.44 249.92 22.55 240.90Q22.66 231.88 22.66 223.52L22.66 223.52L22.66 162.14Q22.66 153.12 22.55 147.73Q22.44 142.34 22 135.74L22 135.74L6.38 133.76L6.38 125.62L42.90 111.54L46.42 113.74L47.52 127.16Q62.26 111.54 80.30 111.54L80.30 111.54Q92.18 111.54 101.86 118.03Q111.54 124.52 117.26 136.84Q122.98 149.16 122.98 166.98L122.98 166.98Q122.98 184.14 116.71 196.79Q110.44 209.44 99.99 216.26Q89.54 223.08 76.78 223.08L76.78 223.08Q68.64 223.08 61.60 220Q54.56 216.92 48.18 209.88L48.18 209.88L48.18 223.30Q48.18 231.66 48.29 240.57Q48.40 249.48 48.62 259.16L48.62 259.16L66 262.46L66 271.48ZM70.18 127.16L70.18 127.16Q65.12 127.16 59.84 129.80Q54.56 132.44 48.84 136.84L48.84 136.84L48.84 198.88Q58.30 207.68 68.64 207.68L68.64 207.68Q79.64 207.68 87.34 198.11Q95.04 188.54 95.04 168.08L95.04 168.08Q95.04 147.84 88.11 137.50Q81.18 127.16 70.18 127.16Z"/>
</svg>
